<?xml version="1.0" encoding="UTF-8" ?>
<!DOCTYPE svg PUBLIC "-//W3C//DTD SVG 1.1//EN" "http://www.w3.org/Graphics/SVG/1.1/DTD/svg11.dtd">
<svg width="676pt" height="629pt" viewBox="0 0 676 629" version="1.1" xmlns="http://www.w3.org/2000/svg">
    <g id="#ffffffff">
    </g>
    <g id="#ff503fff">
        <path fill="#ff503f" opacity="1.00"
              d=" M 266.99 2.20 C 273.27 1.07 279.66 0.87 286.03 0.90 C 293.06 0.56 300.34 1.21 306.80 4.20 C 314.19 7.77 320.41 14.09 322.96 21.99 C 326.44 31.53 327.68 43.11 336.57 49.48 C 348.36 57.61 363.32 57.11 377.00 58.03 C 410.28 58.81 442.70 71.72 468.69 92.27 C 500.78 117.60 522.76 154.88 530.71 194.88 C 539.22 236.37 533.88 280.81 514.63 318.65 C 499.71 348.33 476.48 373.87 447.99 391.02 C 421.70 406.91 390.77 415.28 360.02 413.98 C 333.92 413.20 308.08 405.61 285.56 392.44 C 258.52 376.57 236.42 352.73 221.83 325.04 C 205.22 293.65 198.35 257.37 201.45 222.05 C 205.29 173.49 229.90 127.39 266.74 95.78 C 276.42 87.68 286.26 78.81 291.13 66.86 C 293.45 61.34 294.72 54.82 292.13 49.16 C 289.56 43.45 283.04 40.34 276.98 40.51 C 268.41 40.61 260.77 45.18 254.18 50.25 C 242.94 59.13 234.27 70.85 227.37 83.31 C 211.58 112.63 194.60 141.34 175.81 168.85 C 167.27 181.19 158.72 193.58 148.91 204.96 C 136.75 219.06 123.39 232.06 109.97 244.93 C 88.91 264.29 67.08 284.16 40.10 294.81 C 52.53 283.87 64.35 271.67 71.73 256.66 C 84.05 231.45 90.68 204.04 100.61 177.91 C 111.42 148.76 121.16 118.95 136.78 91.91 C 152.69 64.16 175.70 40.32 203.61 24.54 C 223.16 13.35 244.77 5.81 266.99 2.20 M 271.96 130.97 C 247.97 155.66 233.49 188.89 230.01 223.00 C 226.85 253.03 233.28 283.85 247.46 310.44 C 260.70 335.40 281.50 356.39 306.69 369.27 C 330.92 381.59 359.09 386.58 385.97 381.96 C 420.42 376.65 451.99 356.84 473.26 329.47 C 425.65 336.84 375.20 323.57 337.48 293.56 C 312.53 273.66 293.87 246.09 284.46 215.61 C 283.94 214.41 284.92 213.38 285.45 212.41 C 291.75 202.71 299.02 193.46 308.05 186.17 C 310.34 212.06 321.57 236.82 338.42 256.48 C 357.85 279.33 385.25 294.82 414.38 301.39 C 439.17 306.85 465.36 306.00 489.72 298.81 C 491.11 298.35 492.88 298.01 493.22 296.31 C 497.83 284.87 501.39 272.99 503.62 260.86 C 510.97 222.33 502.06 181.22 480.34 148.67 C 463.47 123.50 438.33 103.68 409.35 94.47 C 392.24 88.75 373.92 87.36 356.01 88.94 C 324.12 92.19 294.00 107.85 271.96 130.97 Z"/>
        <path fill="#ff503f" opacity="1.00"
              d=" M 432.51 144.72 C 442.00 143.11 452.78 143.99 460.25 150.69 C 473.01 160.89 474.80 181.80 463.99 194.03 C 452.77 207.98 428.99 208.00 417.39 194.55 C 413.34 189.56 410.46 183.47 409.94 177.01 C 408.81 162.89 418.27 147.76 432.51 144.72 Z"/>
        <path fill="#ff503f" opacity="1.00"
              d=" M 5.91 531.89 C 9.33 530.77 13.64 531.04 16.24 533.80 C 18.91 536.45 19.21 540.46 19.29 544.02 C 19.27 559.67 19.23 575.33 19.29 590.99 C 19.37 597.07 20.14 603.80 24.53 608.40 C 28.76 612.72 35.18 613.65 40.95 613.46 C 46.01 613.28 51.51 611.98 54.95 608.00 C 58.88 603.29 59.81 596.89 59.81 590.95 C 59.83 575.63 59.82 560.31 59.80 544.99 C 59.90 541.57 60.00 537.87 61.92 534.90 C 65.26 529.93 73.70 530.05 77.00 535.01 C 79.18 538.22 78.87 542.31 79.06 546.01 C 78.75 558.34 78.89 570.67 78.89 583.01 C 78.91 590.98 79.04 599.12 76.69 606.83 C 74.62 613.79 69.63 619.70 63.42 623.38 C 54.31 628.79 43.26 628.89 33.01 628.13 C 23.81 627.33 14.02 624.45 7.99 617.00 C 2.22 610.13 1.05 600.94 0.00 592.35 L 0.00 539.58 C 1.13 536.52 2.62 533.12 5.91 531.89 Z"/>
        <path fill="#ff503f" opacity="1.00"
              d=" M 101.26 535.38 C 104.34 529.81 113.57 529.91 116.84 535.23 C 118.30 537.53 118.65 540.32 118.64 542.99 C 118.64 553.83 118.59 564.67 118.65 575.50 C 132.15 562.06 144.89 547.86 158.31 534.35 C 162.19 529.83 170.36 530.25 173.49 535.43 C 175.88 539.23 174.07 544.15 171.02 547.01 C 163.24 554.78 155.01 562.09 147.20 569.83 C 156.50 582.87 165.53 596.11 174.70 609.26 C 177.30 613.26 180.43 617.92 179.14 622.93 C 177.88 626.75 173.87 628.64 170.02 628.07 C 165.87 628.72 162.18 626.28 160.06 622.88 C 151.63 609.27 142.85 595.88 134.08 582.49 C 129.11 587.41 123.82 592.02 119.04 597.14 C 117.88 604.68 119.24 612.60 118.40 620.26 C 117.90 624.10 114.93 627.82 110.90 628.21 C 107.86 628.47 104.38 628.03 102.28 625.55 C 99.77 623.06 99.74 619.26 99.60 615.97 C 99.54 591.97 99.62 567.98 99.56 543.99 C 99.58 541.06 99.80 537.98 101.26 535.38 Z"/>
        <path fill="#ff503f" opacity="1.00"
              d=" M 203.44 531.63 C 206.54 530.99 210.17 531.08 212.60 533.40 C 215.76 535.92 215.92 540.28 216.13 543.99 C 216.10 567.98 216.19 591.98 216.12 615.97 C 216.12 620.37 215.10 625.85 210.49 627.67 C 207.05 628.05 202.63 628.88 200.04 625.96 C 197.69 623.62 197.02 620.18 197.11 616.99 C 197.14 591.99 197.08 566.98 197.12 541.98 C 196.91 537.67 199.12 533.00 203.44 531.63 Z"/>
        <path fill="#ff503f" opacity="1.00"
              d=" M 239.86 535.80 C 242.43 533.05 246.49 532.93 249.99 532.84 C 266.32 532.90 282.65 532.81 298.97 532.88 C 302.74 532.70 307.44 534.63 307.74 538.91 C 308.76 543.15 305.24 547.30 300.99 547.43 C 286.04 547.67 271.07 547.33 256.12 547.58 C 256.30 555.28 256.12 562.97 256.22 570.67 C 268.80 570.52 281.39 570.67 293.97 570.58 C 297.01 570.57 300.59 570.73 302.64 573.34 C 306.96 577.99 302.21 586.04 296.04 584.84 C 282.76 584.86 269.47 584.76 256.19 584.89 C 256.20 593.84 256.21 602.80 256.18 611.76 C 270.45 611.72 284.72 611.77 298.99 611.72 C 301.77 611.75 304.91 611.82 307.08 613.82 C 310.48 616.76 310.21 622.91 306.36 625.35 C 304.51 626.74 302.12 626.69 299.93 626.74 C 282.62 626.69 265.31 626.76 248.00 626.72 C 244.93 626.79 241.58 626.08 239.54 623.61 C 237.44 621.27 237.29 617.99 237.29 615.02 C 237.30 591.66 237.31 568.30 237.29 544.94 C 237.25 541.76 237.48 538.20 239.86 535.80 Z"/>
    </g>
    <g id="#000000ff">
        <path fill="#000000" opacity="1.00"
              d=" M 642.48 2.63 C 654.61 -0.44 668.08 7.03 672.17 18.81 C 675.15 26.74 673.99 36.05 669.14 43.01 C 664.30 50.16 655.61 54.44 646.99 54.02 C 637.14 53.64 627.88 47.07 624.30 37.88 C 620.13 27.85 623.02 15.39 631.28 8.32 C 634.46 5.52 638.36 3.59 642.48 2.63 M 647.56 5.62 C 637.05 5.87 627.65 14.45 626.34 24.85 C 625.05 33.28 629.06 42.22 636.26 46.78 C 642.58 50.99 651.15 51.58 657.88 47.95 C 666.25 43.86 671.36 34.13 669.88 24.91 C 668.70 14.04 658.43 5.35 647.56 5.62 Z"/>
        <path fill="#000000" opacity="1.00"
              d=" M 638.54 13.00 C 644.26 13.41 650.74 11.68 655.80 15.17 C 660.56 19.43 658.94 27.99 653.12 30.52 C 655.97 34.92 658.50 39.51 661.21 43.99 C 659.20 43.99 657.19 44.00 655.18 44.00 C 652.88 39.83 650.57 35.65 648.26 31.48 C 646.79 31.47 645.32 31.47 643.87 31.47 C 643.86 35.64 643.85 39.81 643.88 43.98 C 642.10 43.99 640.31 44.00 638.54 44.01 C 638.53 33.67 638.53 23.34 638.54 13.00 M 643.87 17.46 C 643.86 20.65 643.86 23.84 643.87 27.04 C 646.11 26.91 648.51 27.33 650.62 26.36 C 653.47 25.00 654.11 20.55 651.70 18.50 C 649.36 16.97 646.48 17.57 643.87 17.46 Z"/>
        <path fill="#000000" opacity="1.00"
              d=" M 530.56 530.88 C 541.70 528.82 553.82 530.30 563.48 536.50 C 570.80 541.05 577.09 548.30 578.36 557.06 C 579.25 562.26 574.34 567.92 568.90 566.64 C 564.78 566.45 562.83 562.28 561.06 559.17 C 557.93 553.09 552.93 547.36 546.03 545.74 C 539.10 544.44 531.29 545.06 525.63 549.64 C 517.41 556.03 514.54 567.00 514.48 576.98 C 514.15 586.28 515.15 596.34 521.03 603.95 C 529.88 615.34 549.91 615.10 558.08 603.03 C 561.39 598.94 561.67 593.16 565.33 589.34 C 570.00 585.23 578.18 588.92 578.60 595.00 C 578.87 603.53 574.19 611.44 568.21 617.21 C 560.71 624.32 550.20 627.41 540.03 627.37 C 530.68 627.18 520.91 625.47 513.23 619.79 C 502.92 612.15 497.16 599.67 495.61 587.16 C 494.44 575.32 495.38 562.79 501.24 552.19 C 507.07 541.06 518.24 533.12 530.56 530.88 Z"/>
        <path fill="#000000" opacity="1.00"
              d=" M 598.18 533.13 C 601.58 529.01 608.57 528.92 612.15 532.85 C 614.18 535.02 614.86 538.08 614.76 540.97 C 614.73 550.15 614.82 559.32 614.70 568.50 C 628.38 568.67 642.06 568.47 655.74 568.60 C 655.70 559.72 655.73 550.85 655.71 541.98 C 655.66 538.69 656.27 535.15 658.57 532.65 C 661.96 529.19 668.06 529.05 671.59 532.40 C 674.00 534.49 674.78 537.84 674.65 540.93 C 674.60 566.65 674.72 592.38 674.59 618.10 C 674.64 624.20 667.85 629.21 662.08 626.81 C 657.55 625.48 655.62 620.35 655.73 616.02 C 655.71 605.39 655.71 594.76 655.74 584.13 C 642.08 584.16 628.43 584.16 614.77 584.13 C 614.66 595.66 614.92 607.21 614.64 618.74 C 614.27 624.95 606.99 629.43 601.36 626.50 C 596.50 624.48 595.67 618.61 595.74 613.98 C 595.78 589.99 595.75 566.00 595.76 542.01 C 595.92 538.95 596.18 535.61 598.18 533.13 Z"/>
        <path fill="#000000" opacity="1.00"
              d=" M 321.22 536.92 C 322.30 533.17 326.46 531.59 330.03 531.60 C 350.03 531.57 370.03 531.62 390.03 531.58 C 393.03 531.57 396.46 531.98 398.56 534.38 C 401.11 537.13 401.16 541.85 398.57 544.60 C 396.46 547.02 392.98 547.42 389.96 547.41 C 383.35 547.37 376.75 547.43 370.14 547.35 C 370.12 569.58 370.13 591.80 370.14 614.03 C 369.92 617.58 370.04 621.66 367.39 624.42 C 364.29 627.91 358.44 628.39 354.87 625.33 C 352.00 623.20 351.07 619.44 351.22 616.03 C 351.28 593.17 351.16 570.31 351.28 547.46 C 343.53 547.19 335.75 547.67 328.01 547.23 C 323.04 547.01 319.34 541.56 321.22 536.92 Z"/>
        <path fill="#000000" opacity="1.00"
              d=" M 413.93 534.99 C 416.32 532.01 420.45 531.60 424.01 531.58 C 441.02 531.67 458.04 531.47 475.04 531.67 C 479.63 531.67 483.68 536.37 482.17 540.90 C 481.25 544.52 477.45 546.43 473.93 546.28 C 459.51 546.27 445.09 546.37 430.66 546.22 C 430.56 553.98 430.67 561.74 430.60 569.51 C 444.39 569.50 458.18 569.42 471.96 569.54 C 476.98 569.55 480.22 575.40 477.98 579.77 C 476.66 582.37 473.83 583.79 470.97 583.66 C 457.53 583.74 444.07 583.70 430.62 583.67 C 430.61 592.61 430.65 601.55 430.60 610.49 C 445.09 610.44 459.59 610.50 474.08 610.46 C 476.66 610.41 479.47 610.73 481.49 612.50 C 484.09 614.59 484.28 618.46 483.24 621.41 C 481.72 624.43 478.22 625.71 475.00 625.63 C 458.01 625.64 441.01 625.62 424.02 625.65 C 420.84 625.64 417.32 625.37 414.83 623.18 C 412.47 621.18 411.74 617.95 411.72 615.01 C 411.70 591.33 411.74 567.65 411.70 543.97 C 411.63 540.87 411.91 537.49 413.93 534.99 Z"/>
    </g>
</svg>
